M48
METRIC,TZ
T01C0.3810
T02C0.7620
T03C1.2700
T04C1.0160
%
T01
X-8890Y-40005
X+14605Y-37465
X+400Y-22300
X+2400Y-22400
T02
X+2140Y-39800
X-400Y-37260
X-2940Y-39800
X+2440Y-53500
X-100Y-50960
X-2640Y-53500
X-3600Y-26000
X-1060Y-26000
X+1480Y-26000
X+4020Y-26000
X+4020Y-18380
X+1480Y-18380
X-1060Y-18380
X-3600Y-18380
T03
X-1000Y-46400
X+1500Y-46400
T04
X+4660Y-33300
X-5500Y-33300
M30
