G04 PROTEUS RS274X GERBER FILE*
%FSLAX45Y45*%
%MOMM*%
G01*
%ADD20C,0.203200*%
%ADD31C,0.127000*%
%ADD30C,0.063500*%
%TD.AperFunction*%
D20*
X-889000Y-3937000D02*
X-889000Y-4064000D01*
X-952500Y-4000500D02*
X-825500Y-4000500D01*
X+1460500Y-3683000D02*
X+1460500Y-3810000D01*
X+1397000Y-3746500D02*
X+1524000Y-3746500D01*
X+40000Y-2166500D02*
X+40000Y-2293500D01*
X-23500Y-2230000D02*
X+103500Y-2230000D01*
X+240000Y-2176500D02*
X+240000Y-2303500D01*
X+176500Y-2240000D02*
X+303500Y-2240000D01*
X+169099Y-3935099D02*
X+258901Y-4024901D01*
X+169099Y-4024901D02*
X+258901Y-3935099D01*
X-84901Y-3681099D02*
X+4901Y-3770901D01*
X-84901Y-3770901D02*
X+4901Y-3681099D01*
X-338901Y-3935099D02*
X-249099Y-4024901D01*
X-338901Y-4024901D02*
X-249099Y-3935099D01*
X+199099Y-5305099D02*
X+288901Y-5394901D01*
X+199099Y-5394901D02*
X+288901Y-5305099D01*
X-54901Y-5051099D02*
X+34901Y-5140901D01*
X-54901Y-5140901D02*
X+34901Y-5051099D01*
X-308901Y-5305099D02*
X-219099Y-5394901D01*
X-308901Y-5394901D02*
X-219099Y-5305099D01*
X-404901Y-2555099D02*
X-315099Y-2644901D01*
X-404901Y-2644901D02*
X-315099Y-2555099D01*
X-150901Y-2555099D02*
X-61099Y-2644901D01*
X-150901Y-2644901D02*
X-61099Y-2555099D01*
X+103099Y-2555099D02*
X+192901Y-2644901D01*
X+103099Y-2644901D02*
X+192901Y-2555099D01*
X+357099Y-2555099D02*
X+446901Y-2644901D01*
X+357099Y-2644901D02*
X+446901Y-2555099D01*
X+357099Y-1793099D02*
X+446901Y-1882901D01*
X+357099Y-1882901D02*
X+446901Y-1793099D01*
X+103099Y-1793099D02*
X+192901Y-1882901D01*
X+103099Y-1882901D02*
X+192901Y-1793099D01*
X-150901Y-1793099D02*
X-61099Y-1882901D01*
X-150901Y-1882901D02*
X-61099Y-1793099D01*
X-404901Y-1793099D02*
X-315099Y-1882901D01*
X-404901Y-1882901D02*
X-315099Y-1793099D01*
X-36500Y-4640000D02*
X-36717Y-4634753D01*
X-38482Y-4624258D01*
X-42174Y-4613763D01*
X-48202Y-4603268D01*
X-57424Y-4592888D01*
X-67919Y-4585200D01*
X-78414Y-4580282D01*
X-88909Y-4577476D01*
X-99404Y-4576503D01*
X-100000Y-4576500D01*
X-163500Y-4640000D02*
X-163283Y-4634753D01*
X-161518Y-4624258D01*
X-157826Y-4613763D01*
X-151798Y-4603268D01*
X-142576Y-4592888D01*
X-132081Y-4585200D01*
X-121586Y-4580282D01*
X-111091Y-4577476D01*
X-100596Y-4576503D01*
X-100000Y-4576500D01*
X-163500Y-4640000D02*
X-163283Y-4645247D01*
X-161518Y-4655742D01*
X-157826Y-4666237D01*
X-151798Y-4676732D01*
X-142576Y-4687112D01*
X-132081Y-4694800D01*
X-121586Y-4699718D01*
X-111091Y-4702524D01*
X-100596Y-4703497D01*
X-100000Y-4703500D01*
X-36500Y-4640000D02*
X-36717Y-4645247D01*
X-38482Y-4655742D01*
X-42174Y-4666237D01*
X-48202Y-4676732D01*
X-57424Y-4687112D01*
X-67919Y-4694800D01*
X-78414Y-4699718D01*
X-88909Y-4702524D01*
X-99404Y-4703497D01*
X-100000Y-4703500D01*
X-100000Y-4576500D02*
X-100000Y-4703500D01*
X-163500Y-4640000D02*
X-36500Y-4640000D01*
X+213500Y-4640000D02*
X+213283Y-4634753D01*
X+211518Y-4624258D01*
X+207826Y-4613763D01*
X+201798Y-4603268D01*
X+192576Y-4592888D01*
X+182081Y-4585200D01*
X+171586Y-4580282D01*
X+161091Y-4577476D01*
X+150596Y-4576503D01*
X+150000Y-4576500D01*
X+86500Y-4640000D02*
X+86717Y-4634753D01*
X+88482Y-4624258D01*
X+92174Y-4613763D01*
X+98202Y-4603268D01*
X+107424Y-4592888D01*
X+117919Y-4585200D01*
X+128414Y-4580282D01*
X+138909Y-4577476D01*
X+149404Y-4576503D01*
X+150000Y-4576500D01*
X+86500Y-4640000D02*
X+86717Y-4645247D01*
X+88482Y-4655742D01*
X+92174Y-4666237D01*
X+98202Y-4676732D01*
X+107424Y-4687112D01*
X+117919Y-4694800D01*
X+128414Y-4699718D01*
X+138909Y-4702524D01*
X+149404Y-4703497D01*
X+150000Y-4703500D01*
X+213500Y-4640000D02*
X+213283Y-4645247D01*
X+211518Y-4655742D01*
X+207826Y-4666237D01*
X+201798Y-4676732D01*
X+192576Y-4687112D01*
X+182081Y-4694800D01*
X+171586Y-4699718D01*
X+161091Y-4702524D01*
X+150596Y-4703497D01*
X+150000Y-4703500D01*
X+150000Y-4576500D02*
X+150000Y-4703500D01*
X+86500Y-4640000D02*
X+213500Y-4640000D01*
X+466000Y-3266500D02*
X+466000Y-3393500D01*
X+402500Y-3330000D02*
X+529500Y-3330000D01*
X+421099Y-3285099D02*
X+510901Y-3374901D01*
X+421099Y-3374901D02*
X+510901Y-3285099D01*
X-550000Y-3266500D02*
X-550000Y-3393500D01*
X-613500Y-3330000D02*
X-486500Y-3330000D01*
X-594901Y-3285099D02*
X-505099Y-3374901D01*
X-594901Y-3374901D02*
X-505099Y-3285099D01*
D31*
X-4262700Y-9462313D02*
X-1618560Y-9462313D01*
X-1618560Y-8217713D01*
X-4262700Y-8217713D01*
X-4262700Y-9462313D01*
D30*
X-3795338Y-8217713D02*
X-3795338Y-9462313D01*
X-2982538Y-8217713D02*
X-2982538Y-9462313D01*
X-2149418Y-8217713D02*
X-2149418Y-9462313D01*
X-4262700Y-8490763D02*
X-1618560Y-8490763D01*
X-4262700Y-8732063D02*
X-1618560Y-8732063D01*
X-4262700Y-8973363D02*
X-1618560Y-8973363D01*
X-4262700Y-9214663D02*
X-1618560Y-9214663D01*
D31*
X-4205550Y-8381543D02*
X-4190310Y-8396783D01*
X-4129350Y-8396783D01*
X-4114110Y-8381543D01*
X-4114110Y-8366303D01*
X-4129350Y-8351063D01*
X-4190310Y-8351063D01*
X-4205550Y-8335823D01*
X-4205550Y-8320583D01*
X-4190310Y-8305343D01*
X-4129350Y-8305343D01*
X-4114110Y-8320583D01*
X-3992190Y-8305343D02*
X-4083630Y-8396783D01*
X-4083630Y-8305343D02*
X-4037910Y-8351063D01*
X-3961710Y-8396783D02*
X-3961710Y-8305343D01*
X-3915990Y-8351063D01*
X-3870270Y-8305343D01*
X-3870270Y-8396783D01*
X-3738190Y-8381543D02*
X-3722950Y-8396783D01*
X-3661990Y-8396783D01*
X-3646750Y-8381543D01*
X-3646750Y-8366303D01*
X-3661990Y-8351063D01*
X-3722950Y-8351063D01*
X-3738190Y-8335823D01*
X-3738190Y-8320583D01*
X-3722950Y-8305343D01*
X-3661990Y-8305343D01*
X-3646750Y-8320583D01*
X-3601030Y-8305343D02*
X-3540070Y-8305343D01*
X-3570550Y-8305343D02*
X-3570550Y-8396783D01*
X-3601030Y-8396783D02*
X-3540070Y-8396783D01*
X-3494350Y-8305343D02*
X-3402910Y-8305343D01*
X-3494350Y-8396783D01*
X-3402910Y-8396783D01*
X-3280990Y-8396783D02*
X-3372430Y-8396783D01*
X-3372430Y-8305343D01*
X-3280990Y-8305343D01*
X-3372430Y-8351063D02*
X-3311470Y-8351063D01*
X-2925390Y-8396783D02*
X-2925390Y-8305343D01*
X-2849190Y-8305343D01*
X-2833950Y-8320583D01*
X-2833950Y-8335823D01*
X-2849190Y-8351063D01*
X-2925390Y-8351063D01*
X-2803470Y-8305343D02*
X-2803470Y-8396783D01*
X-2712030Y-8396783D01*
X-2681550Y-8396783D02*
X-2681550Y-8335823D01*
X-2651070Y-8305343D01*
X-2620590Y-8305343D01*
X-2590110Y-8335823D01*
X-2590110Y-8396783D01*
X-2681550Y-8366303D02*
X-2590110Y-8366303D01*
X-2559630Y-8305343D02*
X-2468190Y-8305343D01*
X-2513910Y-8305343D02*
X-2513910Y-8396783D01*
X-2346270Y-8396783D02*
X-2437710Y-8396783D01*
X-2437710Y-8305343D01*
X-2346270Y-8305343D01*
X-2437710Y-8351063D02*
X-2376750Y-8351063D01*
X-2315790Y-8396783D02*
X-2315790Y-8305343D01*
X-2254830Y-8305343D01*
X-2224350Y-8335823D01*
X-2224350Y-8366303D01*
X-2254830Y-8396783D01*
X-2315790Y-8396783D01*
X-2092270Y-8335823D02*
X-2061790Y-8305343D01*
X-2031310Y-8305343D01*
X-2000830Y-8335823D01*
X-2000830Y-8366303D01*
X-2031310Y-8396783D01*
X-2061790Y-8396783D01*
X-2092270Y-8366303D01*
X-2092270Y-8335823D01*
X-2031310Y-8366303D02*
X-2000830Y-8396783D01*
X-1970350Y-8305343D02*
X-1878910Y-8305343D01*
X-1924630Y-8305343D02*
X-1924630Y-8396783D01*
X-1756990Y-8305343D02*
X-1848430Y-8396783D01*
X-1848430Y-8305343D02*
X-1802710Y-8351063D01*
D20*
X-4016320Y-8541563D02*
X-4016320Y-8668563D01*
X-4079820Y-8605063D02*
X-3952820Y-8605063D01*
D31*
X-3719140Y-8630463D02*
X-3719140Y-8579663D01*
X-3706440Y-8566963D01*
X-3655640Y-8566963D01*
X-3642940Y-8579663D01*
X-3642940Y-8630463D01*
X-3655640Y-8643163D01*
X-3706440Y-8643163D01*
X-3719140Y-8630463D01*
X-3719140Y-8643163D02*
X-3642940Y-8566963D01*
X-3579440Y-8630463D02*
X-3566740Y-8630463D01*
X-3566740Y-8643163D01*
X-3579440Y-8643163D01*
X-3579440Y-8630463D01*
X-3503240Y-8579663D02*
X-3490540Y-8566963D01*
X-3452440Y-8566963D01*
X-3439740Y-8579663D01*
X-3439740Y-8592363D01*
X-3452440Y-8605063D01*
X-3439740Y-8617763D01*
X-3439740Y-8630463D01*
X-3452440Y-8643163D01*
X-3490540Y-8643163D01*
X-3503240Y-8630463D01*
X-3477840Y-8605063D02*
X-3452440Y-8605063D01*
X-3388940Y-8605063D02*
X-3401640Y-8592363D01*
X-3401640Y-8579663D01*
X-3388940Y-8566963D01*
X-3350840Y-8566963D01*
X-3338140Y-8579663D01*
X-3338140Y-8592363D01*
X-3350840Y-8605063D01*
X-3388940Y-8605063D01*
X-3401640Y-8617763D01*
X-3401640Y-8630463D01*
X-3388940Y-8643163D01*
X-3350840Y-8643163D01*
X-3338140Y-8630463D01*
X-3338140Y-8617763D01*
X-3350840Y-8605063D01*
X-3287340Y-8592363D02*
X-3261940Y-8566963D01*
X-3261940Y-8643163D01*
X-3211140Y-8643163D02*
X-3211140Y-8592363D01*
X-3211140Y-8605063D02*
X-3198440Y-8592363D01*
X-3173040Y-8617763D01*
X-3147640Y-8592363D01*
X-3134940Y-8605063D01*
X-3134940Y-8643163D01*
X-3109540Y-8643163D02*
X-3109540Y-8592363D01*
X-3109540Y-8605063D02*
X-3096840Y-8592363D01*
X-3071440Y-8617763D01*
X-3046040Y-8592363D01*
X-3033340Y-8605063D01*
X-3033340Y-8643163D01*
X-2817440Y-8566963D02*
X-2893640Y-8643163D01*
X-2893640Y-8566963D02*
X-2855540Y-8605063D01*
X-2715840Y-8643163D02*
X-2792040Y-8643163D01*
X-2792040Y-8566963D01*
X-2715840Y-8566963D01*
X-2792040Y-8605063D02*
X-2741240Y-8605063D01*
X-2690440Y-8630463D02*
X-2677740Y-8643163D01*
X-2626940Y-8643163D01*
X-2614240Y-8630463D01*
X-2614240Y-8617763D01*
X-2626940Y-8605063D01*
X-2677740Y-8605063D01*
X-2690440Y-8592363D01*
X-2690440Y-8579663D01*
X-2677740Y-8566963D01*
X-2626940Y-8566963D01*
X-2614240Y-8579663D01*
X-1971620Y-8617763D02*
X-2047820Y-8617763D01*
X-1997020Y-8566963D01*
X-1997020Y-8643163D01*
D20*
X-4061221Y-8801462D02*
X-3971419Y-8891264D01*
X-4061221Y-8891264D02*
X-3971419Y-8801462D01*
D31*
X-3719140Y-8871763D02*
X-3719140Y-8820963D01*
X-3706440Y-8808263D01*
X-3655640Y-8808263D01*
X-3642940Y-8820963D01*
X-3642940Y-8871763D01*
X-3655640Y-8884463D01*
X-3706440Y-8884463D01*
X-3719140Y-8871763D01*
X-3719140Y-8884463D02*
X-3642940Y-8808263D01*
X-3579440Y-8871763D02*
X-3566740Y-8871763D01*
X-3566740Y-8884463D01*
X-3579440Y-8884463D01*
X-3579440Y-8871763D01*
X-3503240Y-8808263D02*
X-3439740Y-8808263D01*
X-3439740Y-8820963D01*
X-3503240Y-8884463D01*
X-3338140Y-8820963D02*
X-3350840Y-8808263D01*
X-3388940Y-8808263D01*
X-3401640Y-8820963D01*
X-3401640Y-8871763D01*
X-3388940Y-8884463D01*
X-3350840Y-8884463D01*
X-3338140Y-8871763D01*
X-3338140Y-8859063D01*
X-3350840Y-8846363D01*
X-3401640Y-8846363D01*
X-3300040Y-8820963D02*
X-3287340Y-8808263D01*
X-3249240Y-8808263D01*
X-3236540Y-8820963D01*
X-3236540Y-8833663D01*
X-3249240Y-8846363D01*
X-3287340Y-8846363D01*
X-3300040Y-8859063D01*
X-3300040Y-8884463D01*
X-3236540Y-8884463D01*
X-3211140Y-8884463D02*
X-3211140Y-8833663D01*
X-3211140Y-8846363D02*
X-3198440Y-8833663D01*
X-3173040Y-8859063D01*
X-3147640Y-8833663D01*
X-3134940Y-8846363D01*
X-3134940Y-8884463D01*
X-3109540Y-8884463D02*
X-3109540Y-8833663D01*
X-3109540Y-8846363D02*
X-3096840Y-8833663D01*
X-3071440Y-8859063D01*
X-3046040Y-8833663D01*
X-3033340Y-8846363D01*
X-3033340Y-8884463D01*
X-2817440Y-8808263D02*
X-2893640Y-8884463D01*
X-2893640Y-8808263D02*
X-2855540Y-8846363D01*
X-2715840Y-8884463D02*
X-2792040Y-8884463D01*
X-2792040Y-8808263D01*
X-2715840Y-8808263D01*
X-2792040Y-8846363D02*
X-2741240Y-8846363D01*
X-2690440Y-8871763D02*
X-2677740Y-8884463D01*
X-2626940Y-8884463D01*
X-2614240Y-8871763D01*
X-2614240Y-8859063D01*
X-2626940Y-8846363D01*
X-2677740Y-8846363D01*
X-2690440Y-8833663D01*
X-2690440Y-8820963D01*
X-2677740Y-8808263D01*
X-2626940Y-8808263D01*
X-2614240Y-8820963D01*
X-2022420Y-8833663D02*
X-1997020Y-8808263D01*
X-1997020Y-8884463D01*
X-1870020Y-8859063D02*
X-1946220Y-8859063D01*
X-1895420Y-8808263D01*
X-1895420Y-8884463D01*
D20*
X-4016320Y-9024163D02*
X-4016320Y-9151163D01*
X-4079820Y-9087663D02*
X-3952820Y-9087663D01*
X-4061221Y-9042762D02*
X-3971419Y-9132564D01*
X-4061221Y-9132564D02*
X-3971419Y-9042762D01*
D31*
X-3693740Y-9074963D02*
X-3668340Y-9049563D01*
X-3668340Y-9125763D01*
X-3579440Y-9113063D02*
X-3566740Y-9113063D01*
X-3566740Y-9125763D01*
X-3579440Y-9125763D01*
X-3579440Y-9113063D01*
X-3515940Y-9113063D02*
X-3515940Y-9062263D01*
X-3503240Y-9049563D01*
X-3452440Y-9049563D01*
X-3439740Y-9062263D01*
X-3439740Y-9113063D01*
X-3452440Y-9125763D01*
X-3503240Y-9125763D01*
X-3515940Y-9113063D01*
X-3515940Y-9125763D02*
X-3439740Y-9049563D01*
X-3388940Y-9074963D02*
X-3363540Y-9049563D01*
X-3363540Y-9125763D01*
X-3236540Y-9062263D02*
X-3249240Y-9049563D01*
X-3287340Y-9049563D01*
X-3300040Y-9062263D01*
X-3300040Y-9113063D01*
X-3287340Y-9125763D01*
X-3249240Y-9125763D01*
X-3236540Y-9113063D01*
X-3236540Y-9100363D01*
X-3249240Y-9087663D01*
X-3300040Y-9087663D01*
X-3211140Y-9125763D02*
X-3211140Y-9074963D01*
X-3211140Y-9087663D02*
X-3198440Y-9074963D01*
X-3173040Y-9100363D01*
X-3147640Y-9074963D01*
X-3134940Y-9087663D01*
X-3134940Y-9125763D01*
X-3109540Y-9125763D02*
X-3109540Y-9074963D01*
X-3109540Y-9087663D02*
X-3096840Y-9074963D01*
X-3071440Y-9100363D01*
X-3046040Y-9074963D01*
X-3033340Y-9087663D01*
X-3033340Y-9125763D01*
X-2817440Y-9049563D02*
X-2893640Y-9125763D01*
X-2893640Y-9049563D02*
X-2855540Y-9087663D01*
X-2715840Y-9125763D02*
X-2792040Y-9125763D01*
X-2792040Y-9049563D01*
X-2715840Y-9049563D01*
X-2792040Y-9087663D02*
X-2741240Y-9087663D01*
X-2690440Y-9113063D02*
X-2677740Y-9125763D01*
X-2626940Y-9125763D01*
X-2614240Y-9113063D01*
X-2614240Y-9100363D01*
X-2626940Y-9087663D01*
X-2677740Y-9087663D01*
X-2690440Y-9074963D01*
X-2690440Y-9062263D01*
X-2677740Y-9049563D01*
X-2626940Y-9049563D01*
X-2614240Y-9062263D01*
X-2035120Y-9062263D02*
X-2022420Y-9049563D01*
X-1984320Y-9049563D01*
X-1971620Y-9062263D01*
X-1971620Y-9074963D01*
X-1984320Y-9087663D01*
X-2022420Y-9087663D01*
X-2035120Y-9100363D01*
X-2035120Y-9125763D01*
X-1971620Y-9125763D01*
D20*
X-3952820Y-9328963D02*
X-3953037Y-9323716D01*
X-3954802Y-9313221D01*
X-3958494Y-9302726D01*
X-3964522Y-9292231D01*
X-3973744Y-9281851D01*
X-3984239Y-9274163D01*
X-3994734Y-9269245D01*
X-4005229Y-9266439D01*
X-4015724Y-9265466D01*
X-4016320Y-9265463D01*
X-4079820Y-9328963D02*
X-4079603Y-9323716D01*
X-4077838Y-9313221D01*
X-4074146Y-9302726D01*
X-4068118Y-9292231D01*
X-4058896Y-9281851D01*
X-4048401Y-9274163D01*
X-4037906Y-9269245D01*
X-4027411Y-9266439D01*
X-4016916Y-9265466D01*
X-4016320Y-9265463D01*
X-4079820Y-9328963D02*
X-4079603Y-9334210D01*
X-4077838Y-9344705D01*
X-4074146Y-9355200D01*
X-4068118Y-9365695D01*
X-4058896Y-9376075D01*
X-4048401Y-9383763D01*
X-4037906Y-9388681D01*
X-4027411Y-9391487D01*
X-4016916Y-9392460D01*
X-4016320Y-9392463D01*
X-3952820Y-9328963D02*
X-3953037Y-9334210D01*
X-3954802Y-9344705D01*
X-3958494Y-9355200D01*
X-3964522Y-9365695D01*
X-3973744Y-9376075D01*
X-3984239Y-9383763D01*
X-3994734Y-9388681D01*
X-4005229Y-9391487D01*
X-4015724Y-9392460D01*
X-4016320Y-9392463D01*
X-4016320Y-9265463D02*
X-4016320Y-9392463D01*
X-4079820Y-9328963D02*
X-3952820Y-9328963D01*
D31*
X-3693740Y-9316263D02*
X-3668340Y-9290863D01*
X-3668340Y-9367063D01*
X-3579440Y-9354363D02*
X-3566740Y-9354363D01*
X-3566740Y-9367063D01*
X-3579440Y-9367063D01*
X-3579440Y-9354363D01*
X-3503240Y-9303563D02*
X-3490540Y-9290863D01*
X-3452440Y-9290863D01*
X-3439740Y-9303563D01*
X-3439740Y-9316263D01*
X-3452440Y-9328963D01*
X-3490540Y-9328963D01*
X-3503240Y-9341663D01*
X-3503240Y-9367063D01*
X-3439740Y-9367063D01*
X-3401640Y-9290863D02*
X-3338140Y-9290863D01*
X-3338140Y-9303563D01*
X-3401640Y-9367063D01*
X-3312740Y-9367063D02*
X-3312740Y-9316263D01*
X-3312740Y-9328963D02*
X-3300040Y-9316263D01*
X-3274640Y-9341663D01*
X-3249240Y-9316263D01*
X-3236540Y-9328963D01*
X-3236540Y-9367063D01*
X-3211140Y-9367063D02*
X-3211140Y-9316263D01*
X-3211140Y-9328963D02*
X-3198440Y-9316263D01*
X-3173040Y-9341663D01*
X-3147640Y-9316263D01*
X-3134940Y-9328963D01*
X-3134940Y-9367063D01*
X-2817440Y-9290863D02*
X-2893640Y-9367063D01*
X-2893640Y-9290863D02*
X-2855540Y-9328963D01*
X-2715840Y-9367063D02*
X-2792040Y-9367063D01*
X-2792040Y-9290863D01*
X-2715840Y-9290863D01*
X-2792040Y-9328963D02*
X-2741240Y-9328963D01*
X-2690440Y-9354363D02*
X-2677740Y-9367063D01*
X-2626940Y-9367063D01*
X-2614240Y-9354363D01*
X-2614240Y-9341663D01*
X-2626940Y-9328963D01*
X-2677740Y-9328963D01*
X-2690440Y-9316263D01*
X-2690440Y-9303563D01*
X-2677740Y-9290863D01*
X-2626940Y-9290863D01*
X-2614240Y-9303563D01*
X-2035120Y-9303563D02*
X-2022420Y-9290863D01*
X-1984320Y-9290863D01*
X-1971620Y-9303563D01*
X-1971620Y-9316263D01*
X-1984320Y-9328963D01*
X-2022420Y-9328963D01*
X-2035120Y-9341663D01*
X-2035120Y-9367063D01*
X-1971620Y-9367063D01*
M02*
