G04 PROTEUS RS274X GERBER FILE*
%FSLAX45Y45*%
%MOMM*%
G01*
%ADD22C,1.016000*%
%ADD19C,2.286000*%
%AMPPAD015*
4,1,36,
-0.635000,0.762000,
0.635000,0.762000,
0.660970,0.759470,
0.684980,0.752200,
0.706580,0.740650,
0.725290,0.725290,
0.740650,0.706570,
0.752200,0.684980,
0.759470,0.660970,
0.762000,0.635000,
0.762000,-0.635000,
0.759470,-0.660970,
0.752200,-0.684980,
0.740650,-0.706570,
0.725290,-0.725290,
0.706580,-0.740650,
0.684980,-0.752200,
0.660970,-0.759470,
0.635000,-0.762000,
-0.635000,-0.762000,
-0.660970,-0.759470,
-0.684980,-0.752200,
-0.706580,-0.740650,
-0.725290,-0.725290,
-0.740650,-0.706570,
-0.752200,-0.684980,
-0.759470,-0.660970,
-0.762000,-0.635000,
-0.762000,0.635000,
-0.759470,0.660970,
-0.752200,0.684980,
-0.740650,0.706570,
-0.725290,0.725290,
-0.706580,0.740650,
-0.684980,0.752200,
-0.660970,0.759470,
-0.635000,0.762000,
0*%
%ADD23PPAD015*%
%ADD24C,1.524000*%
%AMPPAD017*
4,1,4,
-0.279400,0.304800,
0.279400,0.304800,
0.279400,-0.304800,
-0.279400,-0.304800,
-0.279400,0.304800,
0*%
%ADD25PPAD017*%
%AMPPAD018*
4,1,4,
-0.469900,0.723900,
0.469900,0.723900,
0.469900,-0.723900,
-0.469900,-0.723900,
-0.469900,0.723900,
0*%
%ADD26PPAD018*%
%AMPPAD019*
4,1,36,
-0.508000,0.762000,
0.508000,0.762000,
0.533970,0.759470,
0.557980,0.752200,
0.579580,0.740650,
0.598290,0.725290,
0.613650,0.706570,
0.625200,0.684980,
0.632470,0.660970,
0.635000,0.635000,
0.635000,-0.635000,
0.632470,-0.660970,
0.625200,-0.684980,
0.613650,-0.706570,
0.598290,-0.725290,
0.579580,-0.740650,
0.557980,-0.752200,
0.533970,-0.759470,
0.508000,-0.762000,
-0.508000,-0.762000,
-0.533970,-0.759470,
-0.557980,-0.752200,
-0.579580,-0.740650,
-0.598290,-0.725290,
-0.613650,-0.706570,
-0.625200,-0.684980,
-0.632470,-0.660970,
-0.635000,-0.635000,
-0.635000,0.635000,
-0.632470,0.660970,
-0.625200,0.684980,
-0.613650,0.706570,
-0.598290,0.725290,
-0.579580,0.740650,
-0.557980,0.752200,
-0.533970,0.759470,
-0.508000,0.762000,
0*%
%ADD27PPAD019*%
%AMPPAD020*
4,1,4,
-1.016000,-1.016000,
-1.016000,1.016000,
1.016000,1.016000,
1.016000,-1.016000,
-1.016000,-1.016000,
0*%
%ADD28PPAD020*%
%ADD29C,2.540000*%
%AMPPAD022*
4,1,4,
0.469900,-0.495300,
-0.469900,-0.495300,
-0.469900,0.495300,
0.469900,0.495300,
0.469900,-0.495300,
0*%
%ADD72PPAD022*%
%AMPPAD023*
4,1,4,
-0.901700,-0.571500,
-0.901700,0.571500,
0.901700,0.571500,
0.901700,-0.571500,
-0.901700,-0.571500,
0*%
%ADD73PPAD023*%
%TD.AperFunction*%
D22*
X-889000Y-4000500D03*
X+1460500Y-3746500D03*
X+40000Y-2230000D03*
X+240000Y-2240000D03*
D19*
X+214000Y-3980000D03*
X-40000Y-3726000D03*
X-294000Y-3980000D03*
X+244000Y-5350000D03*
X-10000Y-5096000D03*
X-264000Y-5350000D03*
D23*
X-360000Y-2600000D03*
D24*
X-106000Y-2600000D03*
X+148000Y-2600000D03*
X+402000Y-2600000D03*
X+402000Y-1838000D03*
X+148000Y-1838000D03*
X-106000Y-1838000D03*
X-360000Y-1838000D03*
D25*
X-280000Y-1580000D03*
X-180000Y-1580000D03*
X+0Y-1590000D03*
X+100000Y-1590000D03*
X+50000Y-2850000D03*
X+150000Y-2850000D03*
X+70000Y-3030000D03*
X+170000Y-3030000D03*
D26*
X-1820000Y-1380000D03*
X-1620000Y-1380000D03*
X+1760000Y-1300000D03*
X+1960000Y-1300000D03*
X-2640000Y-2560000D03*
X-2440000Y-2560000D03*
X+2410000Y-2430000D03*
X+2610000Y-2430000D03*
X-2140000Y-3620000D03*
X-1940000Y-3620000D03*
X+1610000Y-3730000D03*
X+1810000Y-3730000D03*
D27*
X-1530000Y-1080000D03*
X-1316640Y-1080000D03*
X+1480000Y-1040000D03*
X+1693360Y-1040000D03*
X-2330000Y-2340000D03*
X-2116640Y-2340000D03*
X+2220000Y-2110000D03*
X+2433360Y-2110000D03*
X-1880000Y-3380000D03*
X-1666640Y-3380000D03*
X+1340000Y-3490000D03*
X+1553360Y-3490000D03*
D28*
X-100000Y-4640000D03*
X+150000Y-4640000D03*
D29*
X+466000Y-3330000D03*
X-550000Y-3330000D03*
D72*
X-200000Y-2840000D03*
X-360000Y-2840000D03*
D73*
X+390000Y-1610000D03*
X+390000Y-1310000D03*
M02*
